<svg width="17" height="16" viewBox="0 0 17 16" fill="none" xmlns="http://www.w3.org/2000/svg">
<path d="M1.91104 15.425C1.60917 15.5583 1.32239 15.529 1.05071 15.337C0.779029 15.1457 0.643188 14.8667 0.643188 14.5V10.775C0.643188 10.5417 0.703562 10.3333 0.824309 10.15C0.945057 9.96666 1.11108 9.84999 1.32239 9.79999L7.88803 7.99999L1.32239 6.19999C1.11108 6.14999 0.945057 6.03333 0.824309 5.84999C0.703562 5.66666 0.643188 5.45833 0.643188 5.22499V1.49999C0.643188 1.13333 0.779029 0.853995 1.05071 0.661995C1.32239 0.470661 1.60917 0.441661 1.91104 0.574994L15.8573 7.07499C16.2347 7.25833 16.4233 7.56666 16.4233 7.99999C16.4233 8.43333 16.2347 8.74166 15.8573 8.92499L1.91104 15.425Z" fill="white"/>
</svg>
