<svg width="47" height="104" viewBox="0 0 47 104" fill="#32BEFF" xmlns="http://www.w3.org/2000/svg">
<path d="M20.5 101C20.5 102.381 21.6193 103.5 23 103.5C24.3807 103.5 25.5 102.381 25.5 101H20.5ZM24.7678 1.23223C23.7915 0.255922 22.2085 0.255922 21.2322 1.23223L5.32233 17.1421C4.34602 18.1184 4.34602 19.7014 5.32233 20.6777C6.29864 21.654 7.88155 21.654 8.85786 20.6777L23 6.53553L37.1421 20.6777C38.1184 21.654 39.7014 21.654 40.6777 20.6777C41.654 19.7014 41.654 18.1184 40.6777 17.1421L24.7678 1.23223ZM25.5 101L25.5 3H20.5L20.5 101H25.5Z"/>
</svg>
