<svg width="236" height="104" viewBox="0 0 236 104" fill="#32BEFF" xmlns="http://www.w3.org/2000/svg">
<g clip-path="url(#clip0_308_660)">
<path d="M115.06 101C115.06 102.381 116.179 103.5 117.56 103.5C118.941 103.5 120.06 102.381 120.06 101H115.06ZM119.328 1.23223C118.352 0.255922 116.769 0.255922 115.792 1.23223L99.8824 17.1421C98.9061 18.1184 98.9061 19.7014 99.8824 20.6777C100.859 21.654 102.442 21.654 103.418 20.6777L117.56 6.53553L131.702 20.6777C132.679 21.654 134.261 21.654 135.238 20.6777C136.214 19.7014 136.214 18.1184 135.238 17.1421L119.328 1.23223ZM120.06 101V3H115.06V101H120.06Z"/>
<path d="M108.56 53L106.745 54.7194L106.745 54.7194L108.56 53ZM106.791 51.3021L105.137 53.177L105.137 53.177L106.791 51.3021ZM79.8724 36.4766L78.9373 38.7951L78.9373 38.7951L79.8724 36.4766ZM74.999 32.7363C73.7488 33.3223 73.2104 34.8109 73.7964 36.0611L83.346 56.434C83.932 57.6842 85.4205 58.2226 86.6707 57.6366C87.9209 57.0506 88.4593 55.562 87.8733 54.3119L79.3848 36.2026L97.494 27.7141C98.7442 27.1281 99.2826 25.6396 98.6966 24.3894C98.1106 23.1392 96.6221 22.6008 95.3719 23.1868L74.999 32.7363ZM117.56 76.5C120.06 76.5 120.06 76.4992 120.06 76.4983C120.06 76.4979 120.06 76.497 120.06 76.4963C120.06 76.4948 120.06 76.4931 120.06 76.4912C120.06 76.4874 120.06 76.4827 120.06 76.4772C120.06 76.4661 120.06 76.4517 120.06 76.4339C120.059 76.3984 120.059 76.3496 120.057 76.2881C120.055 76.1651 120.05 75.991 120.04 75.7705C120.021 75.3297 119.983 74.7022 119.908 73.9245C119.759 72.3717 119.461 70.2072 118.866 67.7291C117.684 62.8035 115.286 56.4646 110.375 51.2806L106.745 54.7194C110.834 59.0354 112.936 64.4465 114.004 68.8959C114.534 71.1053 114.799 73.0345 114.931 74.4036C114.997 75.0869 115.029 75.6273 115.045 75.9892C115.053 76.1701 115.057 76.3061 115.058 76.3928C115.059 76.4361 115.06 76.4671 115.06 76.4852C115.06 76.4942 115.06 76.5 115.06 76.5025C115.06 76.5037 115.06 76.5041 115.06 76.5037C115.06 76.5035 115.06 76.5031 115.06 76.5025C115.06 76.5022 115.06 76.5015 115.06 76.5014C115.06 76.5007 115.06 76.5 117.56 76.5ZM110.375 51.2806C109.776 50.649 109.129 50.0308 108.445 49.4272L105.137 53.177C105.726 53.696 106.263 54.2108 106.745 54.7194L110.375 51.2806ZM108.445 49.4272C100.763 42.6513 87.2377 36.7516 80.8076 34.1581L78.9373 38.7951C85.4441 41.4196 98.1864 47.0461 105.137 53.177L108.445 49.4272ZM80.8076 34.1581C79.6186 33.6785 78.6498 33.3032 77.9758 33.047C77.6388 32.9188 77.3753 32.8204 77.1946 32.7535C77.1043 32.72 77.0347 32.6944 76.9869 32.677C76.9631 32.6682 76.9447 32.6615 76.9319 32.6568C76.9255 32.6545 76.9205 32.6527 76.9169 32.6514C76.9151 32.6508 76.9137 32.6502 76.9126 32.6498C76.912 32.6497 76.9116 32.6495 76.9112 32.6494C76.911 32.6493 76.9109 32.6492 76.9108 32.6492C76.9107 32.6492 76.9106 32.6491 76.9106 32.6491C76.9105 32.6491 76.9104 32.6491 76.0601 35C75.2097 37.3509 75.2096 37.3509 75.2096 37.3509C75.2096 37.3509 75.2095 37.3509 75.2095 37.3509C75.2094 37.3508 75.2094 37.3508 75.2094 37.3508C75.2094 37.3508 75.2095 37.3509 75.2097 37.3509C75.21 37.3511 75.2107 37.3513 75.2118 37.3517C75.2139 37.3525 75.2175 37.3538 75.2224 37.3555C75.2323 37.3591 75.2477 37.3648 75.2685 37.3724C75.3103 37.3877 75.3737 37.411 75.4577 37.4421C75.6257 37.5043 75.8759 37.5978 76.1989 37.7206C76.8452 37.9663 77.7826 38.3293 78.9373 38.7951L80.8076 34.1581ZM110.375 51.2806C109.776 50.649 109.129 50.0308 108.445 49.4272L105.137 53.177C105.726 53.696 106.263 54.2108 106.745 54.7194L110.375 51.2806Z"/>
<path d="M126.677 53.0744L128.492 54.7938L126.677 53.0744ZM160.238 32.8107C161.488 33.3968 162.026 34.8853 161.44 36.1355L151.891 56.5084C151.305 57.7586 149.816 58.297 148.566 57.711C147.316 57.125 146.778 55.6364 147.364 54.3863L155.852 36.277L137.743 27.7885C136.493 27.2025 135.954 25.714 136.54 24.4638C137.126 23.2136 138.615 22.6752 139.865 23.2612L160.238 32.8107ZM117.677 76.5744C115.177 76.5744 115.177 76.5736 115.177 76.5727C115.177 76.5723 115.177 76.5714 115.177 76.5707C115.177 76.5692 115.177 76.5675 115.177 76.5656C115.177 76.5618 115.177 76.5571 115.177 76.5516C115.177 76.5405 115.177 76.5261 115.177 76.5083C115.178 76.4728 115.178 76.424 115.18 76.3625C115.182 76.2395 115.187 76.0654 115.197 75.8449C115.216 75.4041 115.254 74.7766 115.329 73.9989C115.478 72.4461 115.776 70.2816 116.371 67.8035C117.553 62.8779 119.951 56.539 124.862 51.355L128.492 54.7938C124.403 59.1098 122.301 64.5209 121.233 68.9703C120.702 71.1797 120.438 73.1089 120.306 74.478C120.24 75.1613 120.208 75.7017 120.192 76.0636C120.184 76.2445 120.18 76.3805 120.178 76.4672C120.177 76.5105 120.177 76.5415 120.177 76.5596C120.177 76.5686 120.177 76.5744 120.177 76.5769C120.177 76.5781 120.177 76.5785 120.177 76.5781C120.177 76.5779 120.177 76.5775 120.177 76.5769C120.177 76.5766 120.177 76.5759 120.177 76.5758C120.177 76.5751 120.177 76.5744 117.677 76.5744ZM124.862 51.355C129.716 46.2314 138.233 41.5647 145.233 38.2522C148.788 36.5698 152.053 35.1909 154.429 34.2325C155.618 33.7529 156.587 33.3776 157.261 33.1214C157.598 32.9932 157.862 32.8948 158.042 32.8279C158.133 32.7944 158.202 32.7688 158.25 32.7514C158.274 32.7426 158.292 32.7359 158.305 32.7313C158.311 32.7289 158.316 32.7271 158.32 32.7258C158.322 32.7252 158.323 32.7246 158.324 32.7242C158.325 32.7241 158.325 32.7239 158.326 32.7238C158.326 32.7236 158.326 32.7235 159.177 35.0744C160.027 37.4253 160.027 37.4253 160.027 37.4252C160.027 37.4253 160.027 37.4253 160.027 37.4253C160.027 37.4255 160.026 37.4257 160.025 37.4261C160.023 37.4269 160.019 37.4282 160.014 37.4299C160.005 37.4335 159.989 37.4392 159.968 37.4468C159.927 37.4621 159.863 37.4854 159.779 37.5165C159.611 37.5787 159.361 37.6722 159.038 37.795C158.392 38.0407 157.454 38.4037 156.3 38.8695C153.988 39.8017 150.816 41.1415 147.371 42.7716C140.372 46.0841 132.638 50.4174 128.492 54.7938L124.862 51.355Z"/>
</g>
<path d="M171.906 32.6094L175.266 37.2969C175.656 37.8438 175.5 38.625 174.953 39.0547C174.719 39.2109 174.484 39.2891 174.25 39.2891C173.859 39.2891 173.469 39.0938 173.195 38.7422L169.133 33H165.5V38C165.5 38.7031 164.914 39.25 164.25 39.25C163.547 39.25 163 38.7031 163 38V23C163 22.3359 163.547 21.75 164.25 21.75H169.875C172.961 21.75 175.5 24.2891 175.5 27.375C175.5 29.7578 174.016 31.7891 171.906 32.6094ZM165.5 24.2891V30.5H169.875C171.594 30.5 173 29.1328 173 27.4141C173 25.6562 171.594 24.2891 169.875 24.2891H165.5ZM188 38C188 38.7031 187.414 39.25 186.75 39.25H176.75C176.047 39.25 175.5 38.7031 175.5 38C175.5 37.3359 176.047 36.75 176.75 36.75H180.5V24.25H176.75C176.047 24.25 175.5 23.7031 175.5 23C175.5 22.3359 176.047 21.75 176.75 21.75H186.75C187.414 21.75 188 22.3359 188 23C188 23.7031 187.414 24.25 186.75 24.25H183V36.75H186.75C187.414 36.75 188 37.3359 188 38ZM205.5 30.5C205.5 36.125 200.852 39.2109 196.711 39.2109C191.516 39.2109 188 35.0703 188 30.5C188 25.6562 191.945 21.75 196.75 21.75C200.031 21.75 203.273 23.9375 203.273 25.2266C203.273 25.9297 202.688 26.4766 202.023 26.4766C200.812 26.4766 200.227 24.2891 196.75 24.2891C193.312 24.2891 190.5 27.0234 190.5 30.5C190.5 31.8672 191.594 36.7109 196.75 36.7109C199.836 36.7109 202.375 34.5625 202.922 31.75H197.688C196.984 31.75 196.438 31.2031 196.438 30.5C196.438 29.8359 196.984 29.2891 197.688 29.2891H204.25C204.914 29.25 205.5 29.8359 205.5 30.5ZM220.5 23.0391V38.0391C220.5 38.7031 219.914 39.2891 219.25 39.2891C218.547 39.2891 218 38.7031 218 38.0391V30.5391H208V38.0391C208 38.7031 207.414 39.2891 206.75 39.2891C206.047 39.2891 205.5 38.7031 205.5 38.0391V23.0391C205.5 22.3359 206.047 21.7891 206.75 21.7891C207.414 21.7891 208 22.3359 208 23.0391V28.0391H218V23.0391C218 22.3359 218.547 21.7891 219.25 21.7891C219.914 21.7891 220.5 22.3359 220.5 23.0391ZM235.5 23.0391C235.5 23.7031 234.914 24.2891 234.25 24.2891H229.25V38.0391C229.25 38.7031 228.664 39.25 228 39.25C227.297 39.25 226.75 38.7031 226.75 38.0391V24.2891H221.75C221.047 24.2891 220.5 23.7031 220.5 23.0391C220.5 22.3359 221.047 21.7891 221.75 21.7891H234.25C234.914 21.7891 235.5 22.3359 235.5 23.0391Z"/>
<path d="M32.5 38C32.5 38.7031 31.9141 39.25 31.25 39.25H22.5C21.7969 39.25 21.25 38.7031 21.25 38V23C21.25 22.3359 21.7969 21.7891 22.5 21.7891C23.1641 21.7891 23.75 22.3359 23.75 23.0391V36.7891H31.25C31.9141 36.75 32.5 37.3359 32.5 38ZM45 38C45 38.7031 44.4141 39.25 43.75 39.25H33.75C33.0469 39.25 32.5 38.7031 32.5 38V23C32.5 22.3359 33.0469 21.7891 33.75 21.7891H43.75C44.4141 21.7891 45 22.3359 45 23.0391C45 23.7031 44.4141 24.2891 43.75 24.2891H35V29.2891H41.25C41.9141 29.2891 42.5 29.8359 42.5 30.5C42.5 31.2031 41.9141 31.7891 41.25 31.7891H35V36.7891H43.75C44.4141 36.75 45 37.3359 45 38ZM57.5 23.0391C57.5 23.7031 56.9141 24.2891 56.25 24.2891H47.5V29.2891H53.75C54.4141 29.2891 55 29.8359 55 30.5C55 31.125 54.4141 31.75 53.75 31.75H47.5V38C47.5 38.6641 46.9141 39.25 46.25 39.25C45.5469 39.25 45 38.6641 45 38V23C45 22.3359 45.5469 21.7891 46.25 21.7891H56.25C56.9141 21.7891 57.5 22.3359 57.5 23.0391ZM72.5 23.0391C72.5 23.7031 71.9141 24.2891 71.25 24.2891H66.25V38.0391C66.25 38.7031 65.6641 39.25 65 39.25C64.2969 39.25 63.75 38.7031 63.75 38.0391V24.2891H58.75C58.0469 24.2891 57.5 23.7031 57.5 23.0391C57.5 22.3359 58.0469 21.7891 58.75 21.7891H71.25C71.9141 21.7891 72.5 22.3359 72.5 23.0391Z"/>
<defs>
<clipPath id="clip0_308_660">
<rect width="91" height="104" transform="translate(72)"/>
</clipPath>
</defs>
</svg>
