<svg width="14" height="15" viewBox="0 0 14 15" fill="none" xmlns="http://www.w3.org/2000/svg">
<path d="M1.875 0C1.74375 0 1.63125 0.01875 1.51875 0.05625C0.7875 0.20625 0.20625 0.7875 0.05625 1.51875C0 1.63125 0 1.74375 0 1.875V12.1875C0 13.7437 1.25625 15 2.8125 15H13.125V13.125H2.8125C2.2875 13.125 1.875 12.7125 1.875 12.1875C1.875 11.6625 2.2875 11.25 2.8125 11.25H13.125V0.9375C13.125 0.4125 12.7125 0 12.1875 0H11.25V5.625L9.375 3.75L7.5 5.625V0H1.875Z" fill="#FFFCFC" fill-opacity="0.5"/>
</svg>
