<svg width="15" height="15" viewBox="0 0 15 15" fill="none" xmlns="http://www.w3.org/2000/svg">
<path d="M6.56484 0L5.62968 2.22569C5.44264 2.2818 5.27431 2.37531 5.10598 2.46883L2.8803 1.53367L1.53367 2.8803L2.46883 5.10598C2.37531 5.29302 2.3005 5.44264 2.22569 5.62968L0 6.56484V8.43516L2.22569 9.37032C2.3005 9.55736 2.37531 9.70698 2.46883 9.89401L1.53367 12.1197L2.8803 13.4663L5.10598 12.5312C5.27431 12.606 5.44264 12.6995 5.62968 12.7743L6.56484 15H8.43516L9.37032 12.7743C9.53865 12.6995 9.72569 12.6247 9.89402 12.5312L12.1197 13.4663L13.4663 12.1197L12.5312 9.89401C12.606 9.72569 12.6995 9.53865 12.7743 9.37032L15 8.43516V6.56484L12.7743 5.62968C12.7182 5.46135 12.6247 5.27431 12.5312 5.10598L13.4663 2.8803L12.1197 1.53367L9.89402 2.46883C9.72569 2.39401 9.53865 2.3005 9.37032 2.22569L8.43516 0L6.56484 0ZM7.5 4.67581C9.05237 4.67581 10.3055 5.92893 10.3055 7.4813C10.3055 9.03367 9.05237 10.2868 7.5 10.2868C5.94763 10.2868 4.69451 9.03367 4.69451 7.4813C4.69451 5.92893 5.94763 4.67581 7.5 4.67581Z" fill="white" fill-opacity="0.5"/>
</svg>
