<svg width="15" height="15" viewBox="0 0 15 15" fill="none" xmlns="http://www.w3.org/2000/svg">
<path d="M7.5 11.25C7.7125 11.25 7.89075 11.178 8.03475 11.034C8.17825 10.8905 8.25 10.7125 8.25 10.5V7.48125C8.25 7.26875 8.17825 7.09375 8.03475 6.95625C7.89075 6.81875 7.7125 6.75 7.5 6.75C7.2875 6.75 7.1095 6.82175 6.966 6.96525C6.822 7.10925 6.75 7.2875 6.75 7.5V10.5187C6.75 10.7312 6.822 10.9063 6.966 11.0438C7.1095 11.1813 7.2875 11.25 7.5 11.25ZM7.5 5.25C7.7125 5.25 7.89075 5.178 8.03475 5.034C8.17825 4.8905 8.25 4.7125 8.25 4.5C8.25 4.2875 8.17825 4.10925 8.03475 3.96525C7.89075 3.82175 7.7125 3.75 7.5 3.75C7.2875 3.75 7.1095 3.82175 6.966 3.96525C6.822 4.10925 6.75 4.2875 6.75 4.5C6.75 4.7125 6.822 4.8905 6.966 5.034C7.1095 5.178 7.2875 5.25 7.5 5.25ZM7.5 15C6.4625 15 5.4875 14.803 4.575 14.409C3.6625 14.0155 2.86875 13.4813 2.19375 12.8063C1.51875 12.1313 0.9845 11.3375 0.591 10.425C0.197 9.5125 0 8.5375 0 7.5C0 6.4625 0.197 5.4875 0.591 4.575C0.9845 3.6625 1.51875 2.86875 2.19375 2.19375C2.86875 1.51875 3.6625 0.98425 4.575 0.59025C5.4875 0.19675 6.4625 0 7.5 0C8.5375 0 9.5125 0.19675 10.425 0.59025C11.3375 0.98425 12.1313 1.51875 12.8063 2.19375C13.4813 2.86875 14.0155 3.6625 14.409 4.575C14.803 5.4875 15 6.4625 15 7.5C15 8.5375 14.803 9.5125 14.409 10.425C14.0155 11.3375 13.4813 12.1313 12.8063 12.8063C12.1313 13.4813 11.3375 14.0155 10.425 14.409C9.5125 14.803 8.5375 15 7.5 15Z" fill="white" fill-opacity="0.5"/>
</svg>
